<svg width="114" height="44" viewBox="0 0 114 44" fill="none" xmlns="http://www.w3.org/2000/svg">
<path d="M0 34.3964L11.7021 19.0626H1.38627C1.29885 18.6209 1.26138 18.1371 1.26138 17.6007C1.26138 17.0854 1.29885 16.6121 1.38627 16.1809H18.084L18.2963 16.6542L6.50674 32.0195H17.5595C17.6469 32.5033 17.6844 33.0081 17.6844 33.5129C17.6844 33.9967 17.6469 34.4595 17.5595 34.9012H0.212312L0 34.3964Z" fill="#FF4A00"/>
<path d="M33.7702 22.5649C33.7702 21.1241 33.3331 20.1355 32.4714 19.5676C31.6096 19.0102 30.3482 18.7262 28.6997 18.7262C27.6881 18.7262 26.7389 18.7893 25.8647 18.926C24.978 19.0628 24.1287 19.231 23.2795 19.4519C22.73 18.6526 22.4552 17.685 22.4552 16.5702C23.4418 16.3073 24.5159 16.097 25.7023 15.9497C26.8888 15.8025 28.0253 15.7289 29.1243 15.7289C32.0093 15.7289 34.2073 16.2863 35.7185 17.3906C37.2172 18.4949 37.979 20.2722 37.979 22.7017V34.4176C36.9674 34.6069 35.7435 34.8172 34.2947 35.0171C32.846 35.2274 31.3723 35.3221 29.8737 35.3221C28.4624 35.3221 27.176 35.2169 26.0395 34.996C24.9031 34.7752 23.9289 34.4281 23.1296 33.9338C22.3303 33.45 21.7184 32.8295 21.2813 32.0723C20.8441 31.3151 20.6318 30.4001 20.6318 29.3379C20.6318 28.2967 20.8816 27.3712 21.3937 26.5824C21.8932 25.7937 22.5801 25.1311 23.4543 24.6157C24.3161 24.0899 25.3152 23.7008 26.4517 23.4484C27.5757 23.196 28.7621 23.0592 30.011 23.0592C30.9352 23.0592 31.697 23.0803 32.284 23.1118C32.871 23.1434 33.3706 23.196 33.7827 23.238V22.5649H33.7702ZM33.7702 26.1092C33.3331 26.0566 32.7836 26.0145 32.1217 25.9619C31.4597 25.9093 30.8977 25.8883 30.4357 25.8883C28.6372 25.8883 27.2759 26.1723 26.3393 26.7297C25.4026 27.2871 24.928 28.1389 24.928 29.2853C24.928 30.011 25.0904 30.5894 25.4026 30.9996C25.7148 31.4097 26.1145 31.7252 26.5891 31.9461C27.0636 32.167 27.5882 32.3037 28.1752 32.3458C28.7496 32.3983 29.2992 32.4194 29.8237 32.4194C30.4856 32.4194 31.1725 32.3878 31.8844 32.3247C32.5962 32.2616 33.2207 32.1775 33.7702 32.0513V26.1092Z" fill="#FF4A00"/>
<path d="M42.6622 16.1817C42.9495 16.1291 43.2492 16.0976 43.549 16.0765C43.8487 16.0555 44.1609 16.045 44.4856 16.045C44.7729 16.045 45.0726 16.0555 45.3973 16.0765C45.7095 16.0976 46.0218 16.1396 46.309 16.1817C46.334 16.2343 46.3715 16.3815 46.4214 16.6339C46.4589 16.8863 46.5088 17.1598 46.5463 17.4543C46.5838 17.7487 46.6337 18.0222 46.6712 18.2956C46.7087 18.5691 46.7336 18.7373 46.7336 18.811C47.0209 18.4218 47.3706 18.0432 47.7702 17.6751C48.1699 17.307 48.6569 16.981 49.2189 16.6865C49.7809 16.392 50.4179 16.1607 51.1297 15.9924C51.8416 15.8241 52.6284 15.74 53.4902 15.74C54.789 15.74 56.0004 15.9188 57.112 16.2869C58.2235 16.655 59.1726 17.2124 59.9719 17.9801C60.7712 18.7478 61.3832 19.7259 61.8328 20.9038C62.2824 22.0817 62.5072 23.4805 62.5072 25.0896C62.5072 28.3078 61.4706 30.8214 59.4099 32.6303C57.3368 34.4392 54.4143 35.3542 50.6302 35.3542C49.9933 35.3542 49.3438 35.3227 48.6819 35.249C48.02 35.1754 47.433 35.0808 46.946 34.9546V43.5364C46.5963 43.589 46.2341 43.6206 45.8344 43.6416C45.4473 43.6626 45.0851 43.6732 44.7729 43.6732C44.4606 43.6732 44.0985 43.6626 43.7113 43.6416C43.3242 43.6206 42.962 43.5785 42.6498 43.5364V16.1817H42.6622ZM46.9584 31.8415C47.508 32.0098 48.07 32.136 48.6444 32.2096C49.2189 32.2832 49.9683 32.3148 50.9049 32.3148C51.9415 32.3148 52.9032 32.1781 53.7649 31.8941C54.6267 31.6102 55.376 31.179 56.0004 30.6005C56.6249 30.0116 57.112 29.2754 57.4741 28.3919C57.8363 27.5085 58.0112 26.4463 58.0112 25.2368C58.0112 23.2912 57.5865 21.7452 56.7373 20.5988C55.888 19.4525 54.4893 18.8846 52.5535 18.8846C51.8291 18.8846 51.1422 18.9897 50.4678 19.2106C49.8059 19.4315 49.2065 19.7575 48.6944 20.1992C48.1699 20.6409 47.7577 21.1878 47.433 21.8609C47.1083 22.534 46.9584 23.3227 46.9584 24.2482V31.8415Z" fill="#FF4A00"/>
<path d="M67.8524 19.0205H65.0299C64.9675 18.8207 64.93 18.5998 64.905 18.3474C64.8801 18.095 64.8676 17.8426 64.8676 17.6007C64.8676 17.3588 64.8801 17.1064 64.905 16.854C64.93 16.6016 64.98 16.3702 65.0299 16.1809H72.0612V34.9117C71.749 34.9643 71.3868 34.9958 70.9996 35.0169C70.6125 35.0379 70.2503 35.0484 69.9381 35.0484C69.6508 35.0484 69.3136 35.0379 68.914 35.0169C68.5268 34.9958 68.1647 34.9538 67.8524 34.9117V19.0205Z" fill="#FF4A00"/>
<path d="M81.2905 26.4355C81.353 28.4758 81.9774 29.9797 83.1764 30.9262C84.3753 31.8728 86.1487 32.346 88.4842 32.346C90.5323 32.346 92.4931 32.041 94.3415 31.431C94.5788 31.7991 94.7661 32.2408 94.9035 32.7667C95.0533 33.2925 95.1283 33.8079 95.1657 34.3232C94.2166 34.6598 93.1675 34.9227 92.0185 35.091C90.882 35.2592 89.6082 35.3434 88.2219 35.3434C86.1987 35.3434 84.4627 35.1015 83.014 34.6282C81.5653 34.1549 80.3788 33.4819 79.4422 32.6195C78.5055 31.7571 77.8186 30.7369 77.3815 29.5485C76.9444 28.3706 76.7321 27.077 76.7321 25.6572C76.7321 24.269 76.9444 22.9754 77.3565 21.7659C77.7686 20.5564 78.4181 19.5153 79.2798 18.6213C80.1415 17.7379 81.2406 17.0227 82.5519 16.5074C83.8632 15.9816 85.4244 15.7186 87.2103 15.7186C88.7464 15.7186 90.0827 15.9395 91.2442 16.3812C92.4057 16.8229 93.3673 17.4224 94.1541 18.1901C94.9285 18.9579 95.5279 19.8728 95.9276 20.9245C96.3272 21.9868 96.5395 23.1331 96.5395 24.3741C96.5395 24.7107 96.527 25.0788 96.4896 25.4469C96.4646 25.8255 96.4271 26.1515 96.4021 26.4144H81.2905V26.4355ZM92.3058 23.7326C92.3058 23.049 92.1934 22.3969 91.9811 21.7764C91.7687 21.1559 91.444 20.6196 91.0319 20.1568C90.6073 19.6941 90.0827 19.326 89.4333 19.042C88.7839 18.758 88.0096 18.6213 87.1104 18.6213C85.3494 18.6213 84.0006 19.0736 83.0515 19.9675C82.1148 20.872 81.5403 22.1235 81.3405 23.7326H92.3058Z" fill="#FF4A00"/>
<path d="M101.285 16.1809C101.598 16.1283 101.91 16.0968 102.197 16.0757C102.484 16.0547 102.784 16.0442 103.109 16.0442C103.421 16.0442 103.746 16.0547 104.058 16.0757C104.37 16.0968 104.67 16.1388 104.92 16.1809C105.007 16.549 105.095 17.0223 105.182 17.6217C105.269 18.2212 105.307 18.726 105.307 19.1362C105.919 18.3053 106.718 17.5902 107.717 16.9802C108.716 16.3702 109.99 16.0652 111.551 16.0652C111.789 16.0652 112.026 16.0757 112.263 16.0863C112.513 16.0968 112.713 16.1178 112.888 16.1388C112.95 16.3597 112.988 16.5911 113.013 16.833C113.038 17.0749 113.05 17.3273 113.05 17.6007C113.05 17.8952 113.025 18.2002 112.988 18.5157C112.95 18.8312 112.888 19.1362 112.838 19.4307C112.6 19.3781 112.363 19.357 112.126 19.357C111.876 19.357 111.689 19.357 111.539 19.357C110.765 19.357 110.015 19.4517 109.303 19.6305C108.591 19.8093 107.955 20.1353 107.393 20.5981C106.831 21.0608 106.381 21.6918 106.044 22.5016C105.706 23.3009 105.544 24.3421 105.544 25.6041V34.9117C105.232 34.9643 104.87 34.9958 104.483 35.0169C104.095 35.0379 103.733 35.0484 103.421 35.0484C103.109 35.0484 102.747 35.0379 102.359 35.0169C101.972 34.9958 101.598 34.9538 101.248 34.9117V16.1809H101.285Z" fill="#FF4A00"/>
<path d="M76.1449 5.15949H71.9486L74.921 2.65644C74.6837 2.383 74.4214 2.12008 74.1467 1.87819C73.8594 1.63629 73.5597 1.41544 73.2225 1.22613L70.2501 3.72918V0.195464C69.863 0.142879 69.4633 0.111328 69.0512 0.111328H69.0387C68.6266 0.111328 68.2269 0.142879 67.8398 0.195464V3.72918L64.8674 1.22613C64.5427 1.42595 64.2305 1.64681 63.9432 1.87819C63.656 2.12008 63.4062 2.37249 63.1689 2.65644L66.1538 5.15949H61.9575C61.9575 5.15949 61.8576 5.82206 61.8576 6.16913C61.8576 6.51619 61.895 6.85273 61.9575 7.17876H66.1538L63.1814 9.68181C63.6435 10.2287 64.218 10.7125 64.8799 11.1121L67.8523 8.60907V12.1428C68.2394 12.1954 68.6391 12.2269 69.0512 12.2269H69.0637C69.4758 12.2269 69.8755 12.1954 70.2626 12.1428V8.60907L73.235 11.1121C73.5597 10.9123 73.8719 10.6914 74.1592 10.4601C74.4464 10.2182 74.7087 9.96576 74.9335 9.68181L71.9611 7.17876H76.1574C76.2199 6.85273 76.2573 6.51619 76.2573 6.16913V6.15861C76.2448 5.82206 76.2199 5.48552 76.1449 5.15949ZM70.8496 6.17964C70.8496 6.63187 70.7497 7.06307 70.5748 7.46272C70.1003 7.60996 69.5882 7.69409 69.0512 7.69409C68.5142 7.69409 68.0021 7.60996 67.5275 7.46272C67.3527 7.06307 67.2528 6.63187 67.2528 6.17964V6.16913C67.2528 5.71689 67.3527 5.2857 67.5275 4.88605C68.0021 4.73881 68.5142 4.65468 69.0512 4.65468C69.5882 4.65468 70.1003 4.73881 70.5748 4.88605C70.7497 5.2857 70.8496 5.71689 70.8496 6.17964Z" fill="#FF4A00"/>
</svg>
