<svg width="28" height="26" viewBox="0 0 28 26" fill="none" xmlns="http://www.w3.org/2000/svg">
<path d="M6.63849 25.9698V8.68157H0.897246V25.9698H6.63909H6.63849ZM3.76907 6.32156C5.77074 6.32156 7.01691 4.99402 7.01691 3.33498C6.97944 1.63814 5.77074 0.347656 3.80713 0.347656C1.84218 0.347656 0.558838 1.63814 0.558838 3.33483C0.558838 4.99387 1.80456 6.32141 3.73145 6.32141H3.76862L3.76907 6.32156ZM9.81635 25.9698H15.5571V16.3163C15.5571 15.8003 15.5946 15.2829 15.7463 14.9144C16.1611 13.8816 17.1058 12.8125 18.6921 12.8125C20.769 12.8125 21.6004 14.3978 21.6004 16.7221V25.9698H27.341V16.0573C27.341 10.7473 24.5091 8.27626 20.7319 8.27626C17.6351 8.27626 16.275 10.0087 15.5194 11.1886H15.5576V8.68217H9.81665C9.89158 10.304 9.8162 25.9704 9.8162 25.9704L9.81635 25.9698Z" fill="#FDFDFD"/>
</svg>
