<svg width="114" height="48" viewBox="0 0 114 48" fill="none" xmlns="http://www.w3.org/2000/svg">
<path fill-rule="evenodd" clip-rule="evenodd" d="M92.7207 20.5972C93.156 21.2429 93.2984 21.9774 93.3454 22.8032L93.4072 23.9039V31.6007L93.4704 32.7025C93.5967 34.502 95.1404 35.8325 97.2498 35.9457L98.5248 36V23.9039L98.588 22.8032C98.6403 21.9867 98.7814 21.2382 99.2234 20.588C99.6739 19.921 100.32 19.3677 101.098 18.9835C101.876 18.5993 102.758 18.3978 103.655 18.3992C104.552 18.4006 105.433 18.6049 106.209 18.9915C106.986 19.3781 107.63 19.9335 108.077 20.6018C108.513 21.2475 108.648 21.9959 108.701 22.8032L108.764 23.9005V31.6007L108.827 32.7025C108.959 34.5112 110.49 35.8418 112.606 35.9457L113.882 36V22.8032C113.882 20.4697 112.803 18.2317 110.884 16.5813C108.965 14.9309 106.362 14.0032 103.648 14.0023C102.195 14.001 100.758 14.2662 99.4342 14.7803C98.1101 15.2944 96.9289 16.0454 95.9694 16.9833C95.0095 16.0458 93.8282 15.2949 92.5042 14.7807C91.1802 14.2665 89.7439 14.0007 88.291 14.0012C86.1655 14.0012 84.1932 14.5555 82.5595 15.513C81.5626 14.5567 79.3323 14.0012 78.0519 14.0012V36L79.3323 35.9457C81.4739 35.8244 83.0216 34.5297 83.1049 32.7025L83.1735 31.6007V23.9039L83.2366 22.8032C83.2903 21.9728 83.4247 21.2429 83.8614 20.5926C84.3122 19.9261 84.9585 19.3728 85.7358 18.9882C86.5131 18.6035 87.3941 18.4009 88.291 18.4005C89.1886 18.4006 90.0703 18.6037 90.8478 18.9893C91.6253 19.3748 92.2712 19.9294 92.7207 20.5972V20.5972ZM5.11756 35.9469L6.39796 36H25.5905L25.5273 34.9028C25.354 33.0941 23.864 31.7728 21.7533 31.655L20.4729 31.6007H8.95875L24.3101 18.3993L24.2469 17.3032C24.1475 15.4761 22.5944 14.1559 20.4729 14.0554L19.1925 14.0058L0 14.0012L0.0631466 15.1019C0.23109 16.8932 1.74258 18.2422 3.83582 18.3462L5.11756 18.4005H16.6317L1.2804 31.6018L1.34354 32.7025C1.46984 34.5159 2.99207 35.8291 5.11756 35.9457V35.9469ZM73.0284 17.2212C74.2167 18.2426 75.1594 19.4552 75.8026 20.7898C76.4457 22.1244 76.7768 23.5548 76.7768 24.9994C76.7768 26.444 76.4457 27.8744 75.8026 29.209C75.1594 30.5436 74.2167 31.7562 73.0284 32.7776C70.6274 34.8399 67.3723 35.9983 63.9782 35.9983C60.5842 35.9983 57.329 34.8399 54.9281 32.7776C49.9315 28.4823 49.9315 21.5166 54.9281 17.2212C56.1154 16.2002 57.525 15.3902 59.0765 14.8375C60.6279 14.2848 62.2908 14.0002 63.9702 14C65.6523 13.999 67.3181 14.2831 68.8724 14.836C70.4267 15.3889 71.839 16.1999 73.0284 17.2224V17.2212ZM69.4075 20.3362C70.8467 21.5744 71.6552 23.2531 71.6552 25.0035C71.6552 26.7538 70.8467 28.4326 69.4075 29.6707C67.9672 30.908 66.0144 31.6029 63.9782 31.6029C61.9421 31.6029 59.9893 30.908 58.549 29.6707C57.1098 28.4326 56.3013 26.7538 56.3013 25.0035C56.3013 23.2531 57.1098 21.5744 58.549 20.3362C59.9893 19.099 61.9421 18.404 63.9782 18.404C66.0144 18.404 67.9672 19.099 69.4075 20.3362V20.3362ZM37.1154 14C38.7949 14.0004 40.4578 14.2851 42.0093 14.8381C43.5607 15.391 44.9703 16.2012 46.1575 17.2224C51.1555 21.5166 51.1555 28.4834 46.1575 32.7776C43.7566 34.8399 40.5014 35.9983 37.1074 35.9983C33.7133 35.9983 30.4582 34.8399 28.0572 32.7776C23.0606 28.4823 23.0606 21.5166 28.0572 17.2212C29.2445 16.2002 30.6541 15.3902 32.2056 14.8375C33.757 14.2848 35.4199 14.0002 37.0993 14H37.1154ZM42.5366 20.3339C43.9762 21.5721 44.785 23.2511 44.785 25.0017C44.785 26.7524 43.9762 28.4314 42.5366 29.6696C41.0963 30.9068 39.1435 31.6018 37.1074 31.6018C35.0712 31.6018 33.1184 30.9068 31.6781 29.6696C30.2389 28.4314 29.4304 26.7527 29.4304 25.0023C29.4304 23.252 30.2389 21.5732 31.6781 20.335C33.1184 19.0978 35.0712 18.4028 37.1074 18.4028C39.1435 18.4028 41.0963 19.0978 42.5366 20.335V20.3339Z" fill="#2D8CFF"/>
</svg>
