<svg width="165" height="136" viewBox="0 0 165 136" fill="none" xmlns="http://www.w3.org/2000/svg">
<circle cx="66.3414" cy="66.3419" r="57.9552" fill="#C1CBFF"/>
<circle cx="66.3415" cy="66.3415" r="64.5669" fill="#DAFFAB" stroke="#DAFFAB" stroke-width="3.54919"/>
<g clip-path="url(#clip0_20434_869)">
<path d="M150.984 39.915L34.3971 86.5575L22.1447 106.838L150.984 39.915Z" fill="#91FF02"/>
<path opacity="0.6" d="M150.984 39.915L34.3971 86.5575L22.1447 106.838L150.984 39.915Z" fill="white"/>
<path d="M150.984 39.915L34.3971 86.5575L45.732 108.843L150.984 39.915Z" fill="#91FF02"/>
<path opacity="0.2" d="M150.984 39.915L34.3971 86.5575L45.732 108.843L150.984 39.915Z" fill="black"/>
<path d="M31.6415 39.8512L32.5845 74.3983C32.6341 76.27 34.2059 77.7561 36.0787 77.706L101.88 75.8905C103.753 75.8404 105.24 74.2691 105.191 72.3974L104.248 37.8502C104.218 36.8707 103.776 35.9967 103.092 35.3945C102.465 34.8455 101.641 34.5238 100.748 34.5439L34.952 36.3581C34.0606 36.3834 33.2525 36.753 32.6585 37.3342C32.0111 37.9732 31.613 38.877 31.6415 39.8512Z" fill="#91FF02"/>
<path opacity="0.4" d="M31.6415 39.8512L32.5845 74.3983C32.6341 76.27 34.2059 77.7561 36.0787 77.706L101.88 75.8905C103.753 75.8404 105.24 74.2691 105.191 72.3974L104.248 37.8502C104.218 36.8707 103.776 35.9967 103.092 35.3945C102.465 34.8455 101.641 34.5238 100.748 34.5439L34.952 36.3581C34.0606 36.3834 33.2525 36.753 32.6585 37.3342C32.0111 37.9732 31.613 38.877 31.6415 39.8512Z" fill="black"/>
<path d="M32.6583 37.3343L59.7812 57.9138C64.9633 61.844 72.1806 61.6482 77.1402 57.436L103.096 35.388C102.469 34.839 101.645 34.5173 100.752 34.5374L34.9519 36.3582C34.0604 36.3835 33.2524 36.7531 32.6583 37.3343Z" fill="#91FF02"/>
<path d="M150.984 39.915L57.0835 87.7153L45.732 108.843L150.984 39.915Z" fill="#91FF02"/>
<path opacity="0.6" d="M150.984 39.915L57.0835 87.7153L45.732 108.843L150.984 39.915Z" fill="white"/>
<path d="M120.165 71.5259L120.543 71.918L111.029 81.0948L110.65 80.7028L120.165 71.5259Z" fill="#91FF02"/>
<path d="M106.453 84.7593L106.832 85.1514L103.41 88.4512L103.032 88.0592L106.453 84.7593Z" fill="#91FF02"/>
<path d="M150.984 39.915L57.0835 87.7153L82.1037 106.354L150.984 39.915Z" fill="#91FF02"/>
<path d="M31.1527 127.647C31.2799 127.616 31.406 127.558 31.5269 127.478L46.2008 117.122C46.694 116.773 46.8101 116.094 46.4607 115.601C46.1113 115.109 45.4378 114.991 44.9393 115.342L30.2654 125.698C29.7722 126.047 29.6561 126.726 30.0055 127.218C30.2711 127.597 30.7288 127.75 31.1527 127.647Z" fill="#91FF02"/>
<path opacity="0.3" d="M31.1527 127.647C31.2799 127.616 31.406 127.558 31.5269 127.478L46.2008 117.122C46.694 116.773 46.8101 116.094 46.4607 115.601C46.1113 115.109 45.4378 114.991 44.9393 115.342L30.2654 125.698C29.7722 126.047 29.6561 126.726 30.0055 127.218C30.2711 127.597 30.7288 127.75 31.1527 127.647Z" fill="black"/>
<path d="M29.8526 118.112C29.9798 118.081 30.1058 118.023 30.2268 117.943L38.108 112.384C38.6012 112.034 38.7173 111.356 38.3679 110.863C38.0185 110.37 37.345 110.253 36.8465 110.604L28.9652 116.163C28.4721 116.512 28.356 117.191 28.7054 117.684C28.971 118.062 29.4287 118.215 29.8526 118.112Z" fill="#91FF02"/>
<path d="M29.8526 118.112C29.9798 118.081 30.1058 118.023 30.2268 117.943L38.108 112.384C38.6012 112.034 38.7173 111.356 38.3679 110.863C38.0185 110.37 37.345 110.253 36.8465 110.604L28.9652 116.163C28.4721 116.512 28.356 117.191 28.7054 117.684C28.971 118.062 29.4287 118.215 29.8526 118.112Z" fill="#66B201"/>
<path d="M50.2948 122.835C50.422 122.804 50.548 122.745 50.6689 122.666L64.9787 112.566C65.4718 112.217 65.5879 111.539 65.2385 111.046C64.8891 110.553 64.2103 110.437 63.7171 110.786L49.4074 120.886C48.9143 121.235 48.7982 121.914 49.1476 122.406C49.4132 122.785 49.8709 122.938 50.2948 122.835Z" fill="#91FF02"/>
<path opacity="0.3" d="M50.2948 122.835C50.422 122.804 50.548 122.745 50.6689 122.666L64.9787 112.566C65.4718 112.217 65.5879 111.539 65.2385 111.046C64.8891 110.553 64.2103 110.437 63.7171 110.786L49.4074 120.886C48.9143 121.235 48.7982 121.914 49.1476 122.406C49.4132 122.785 49.8709 122.938 50.2948 122.835Z" fill="black"/>
</g>
<defs>
<clipPath id="clip0_20434_869">
<rect width="140.976" height="87.9024" fill="white" transform="matrix(-0.971879 0.23548 0.23548 0.971879 143.719 9.92676)"/>
</clipPath>
</defs>
</svg>
