<svg width="45" height="46" viewBox="0 0 45 46" fill="none" xmlns="http://www.w3.org/2000/svg">
<path d="M22.5 3.86914C17.5875 3.86914 13.5938 7.86289 13.5938 12.7754C13.5938 17.5941 17.3625 21.4941 22.275 21.6629C22.425 21.6441 22.575 21.6441 22.6875 21.6629C22.725 21.6629 22.7437 21.6629 22.7812 21.6629C22.8 21.6629 22.8 21.6629 22.8188 21.6629C27.6187 21.4941 31.3875 17.5941 31.4062 12.7754C31.4062 7.86289 27.4125 3.86914 22.5 3.86914Z" fill="#FDFDFD"/>
<path d="M32.0248 26.6498C26.7936 23.1623 18.2623 23.1623 12.9936 26.6498C10.6123 28.2436 9.2998 30.3998 9.2998 32.7061C9.2998 35.0123 10.6123 37.1498 12.9748 38.7248C15.5998 40.4873 19.0498 41.3686 22.4998 41.3686C25.9498 41.3686 29.3998 40.4873 32.0248 38.7248C34.3873 37.1311 35.6998 34.9936 35.6998 32.6686C35.6811 30.3623 34.3873 28.2248 32.0248 26.6498Z" fill="#FDFDFD"/>
</svg>
