<svg width="114" height="48" viewBox="0 0 114 48" fill="none" xmlns="http://www.w3.org/2000/svg">
<path fill-rule="evenodd" clip-rule="evenodd" d="M20.1219 12H2.71382C1.99469 12 1.30495 12.2829 0.796119 12.7867C0.287286 13.2904 0.000959787 13.9737 3.18699e-05 14.6865V31.9146C-0.0016963 32.268 0.0668747 32.6184 0.201825 32.9456C0.336775 33.2728 0.535458 33.5704 0.786516 33.8214C1.03757 34.0724 1.33608 34.272 1.66498 34.4086C1.99388 34.5452 2.34671 34.6162 2.70332 34.6176H20.1241C20.4805 34.6172 20.8334 34.5472 21.1626 34.4116C21.4917 34.2759 21.7907 34.0774 22.0424 33.8272C22.2942 33.5771 22.4937 33.2802 22.6297 32.9536C22.7656 32.627 22.8353 32.277 22.8348 31.9237V14.6865C22.8339 13.9738 22.5477 13.2907 22.039 12.787C21.5304 12.2833 20.8409 12.0002 20.1219 12V12ZM9.84846 28.2909C9.84742 28.5294 9.75088 28.7576 9.58007 28.9256C9.40926 29.0935 9.17817 29.1873 8.93759 29.1864H5.12953C4.89065 29.1852 4.66193 29.0904 4.49338 28.9226C4.32483 28.7548 4.23015 28.5277 4.23004 28.2909V17.0689C4.22992 16.832 4.32453 16.6048 4.49313 16.4369C4.66173 16.2691 4.89058 16.1743 5.12953 16.1734H8.93409C9.17341 16.1743 9.40267 16.2689 9.57189 16.4367C9.74112 16.6044 9.8366 16.8317 9.83752 17.0689L9.84846 28.2909ZM18.6258 23.1383C18.6258 23.3758 18.5307 23.6036 18.3612 23.7716C18.1918 23.9396 17.962 24.0341 17.7224 24.0342H13.9073C13.6679 24.0333 13.4386 23.9386 13.2694 23.7708C13.1001 23.6029 13.0047 23.3756 13.0039 23.1383V17.0689C13.0048 16.8317 13.1003 16.6044 13.2695 16.4367C13.4388 16.2689 13.668 16.1743 13.9073 16.1734H17.7114C17.9505 16.1742 18.1794 16.2689 18.3481 16.4368C18.5168 16.6046 18.6115 16.8319 18.6114 17.0689L18.6258 23.1383Z" fill="url(#paint0_linear_24474_843)"/>
<path d="M47.312 13.6572V18.0311H42.0849V34.6178H37.0442V18.0311H31.8171V13.6572H47.312Z" fill="white"/>
<path d="M53.7265 34.6182H49.0667V18.3021H53.7265V21.4259C54.612 19.2249 56.0275 17.9159 58.5478 18.0756V22.9089C55.2554 22.6551 53.7265 23.4525 53.7265 26.067V34.6182Z" fill="white"/>
<path d="M84.006 34.7447C80.9517 34.7447 79.031 33.2943 79.031 29.8641V12H83.7241V29.2246C83.7241 30.2142 84.3807 30.5661 85.1874 30.5661C85.4195 30.5705 85.6518 30.5595 85.8825 30.5331V34.5542C85.2688 34.7031 84.6373 34.7672 84.006 34.7447Z" fill="white"/>
<path d="M93.7961 34.7447C90.7418 34.7447 88.8176 33.2943 88.8176 29.8641V12H93.5107V29.2246C93.5107 30.2142 94.1725 30.5661 94.9919 30.5661C95.2229 30.571 95.454 30.5599 95.6835 30.5331V34.5542C95.0664 34.7044 94.4311 34.7685 93.7961 34.7447V34.7447Z" fill="white"/>
<path d="M97.9319 26.453C97.9319 21.4132 100.858 17.9648 105.898 17.9648C110.938 17.9648 113.804 21.4019 113.804 26.453C113.804 31.5041 110.906 35.0003 105.899 35.0003C100.892 35.0003 97.9319 31.4599 97.9319 26.453ZM102.501 26.453C102.501 28.9074 103.54 30.8546 105.899 30.8546C108.258 30.8546 109.239 28.9074 109.239 26.453C109.239 23.9987 108.232 22.1018 105.899 22.1018C103.566 22.1018 102.501 23.9947 102.501 26.453Z" fill="white"/>
<path d="M64.8385 27.9282C66.1433 28.0702 67.4547 28.1463 68.7673 28.1564C72.3373 28.1564 75.3513 27.2067 75.3513 23.7804C75.3513 20.4552 72.2532 17.957 68.5257 17.957C63.5074 17.957 60.292 21.5651 60.292 26.6049C60.292 31.8369 63.0644 34.9439 69.3307 34.9439C71.1895 34.9589 73.035 34.632 74.7736 33.9798V30.0711C73.1641 30.5822 71.3533 31.0898 69.4952 31.0898C67.0003 31.0902 65.2613 30.2776 64.8385 27.9282ZM68.4307 21.5178C69.7513 21.5178 70.8119 22.4059 70.8119 23.6208C70.8119 25.1827 69.1486 25.6729 67.231 25.6729C66.4152 25.6691 65.6008 25.6048 64.7947 25.4807C64.8556 24.7189 65.0761 23.978 65.4421 23.3053C65.736 22.7725 66.1678 22.3268 66.693 22.0141C67.2183 21.7015 67.8181 21.5332 68.4307 21.5265V21.5178Z" fill="white"/>
<defs>
<linearGradient id="paint0_linear_24474_843" x1="11.4163" y1="34.6176" x2="11.4163" y2="12" gradientUnits="userSpaceOnUse">
<stop stop-color="#0052CC"/>
<stop offset="1" stop-color="#2684FF"/>
</linearGradient>
</defs>
</svg>
