<svg width="33" height="33" viewBox="0 0 33 33" fill="none" xmlns="http://www.w3.org/2000/svg">
<path d="M10.6742 16.0826C10.6742 13.1346 13.0627 10.7441 16.0098 10.7441C18.957 10.7441 21.3468 13.1346 21.3468 16.0826C21.3468 19.0306 18.957 21.4211 16.0098 21.4211C13.0627 21.4211 10.6742 19.0306 10.6742 16.0826ZM7.78911 16.0826C7.78911 20.6242 11.4695 24.3057 16.0098 24.3057C20.5502 24.3057 24.2306 20.6242 24.2306 16.0826C24.2306 11.5409 20.5502 7.85947 16.0098 7.85947C11.4695 7.85947 7.78911 11.5409 7.78911 16.0826ZM22.6349 7.53342C22.6347 7.9135 22.7472 8.28509 22.9582 8.60119C23.1692 8.9173 23.4691 9.16373 23.8201 9.30932C24.1711 9.45491 24.5574 9.49312 24.9301 9.41912C25.3028 9.34512 25.6452 9.16223 25.9139 8.89359C26.1827 8.62494 26.3658 8.2826 26.4401 7.90985C26.5144 7.53711 26.4765 7.1507 26.3312 6.79949C26.186 6.44829 25.9398 6.14806 25.624 5.93678C25.3082 5.72549 24.9368 5.61264 24.5568 5.61248H24.556C24.0467 5.61272 23.5583 5.81516 23.1981 6.17533C22.8379 6.5355 22.6353 7.02396 22.6349 7.53342ZM9.54197 29.1178C7.98109 29.0467 7.13271 28.7866 6.56892 28.5669C5.82146 28.2758 5.28815 27.9291 4.72743 27.369C4.16671 26.8089 3.81962 26.276 3.52991 25.5283C3.31013 24.9646 3.05014 24.1157 2.97918 22.5544C2.90157 20.8664 2.88607 20.3593 2.88607 16.0827C2.88607 11.8061 2.90285 11.3005 2.97918 9.61104C3.05027 8.04972 3.31218 7.2025 3.52991 6.63714C3.8209 5.88947 4.16748 5.356 4.72743 4.79512C5.28738 4.23424 5.82018 3.88705 6.56892 3.59725C7.13246 3.37741 7.98109 3.11734 9.54197 3.04636C11.2295 2.96873 11.7364 2.95323 16.0098 2.95323C20.2833 2.95323 20.7907 2.97001 22.4796 3.04636C24.0405 3.11747 24.8875 3.37946 25.4527 3.59725C26.2001 3.88705 26.7335 4.235 27.2942 4.79512C27.8549 5.35523 28.2007 5.88947 28.4917 6.63714C28.7115 7.20084 28.9715 8.04972 29.0424 9.61104C29.12 11.3005 29.1355 11.8061 29.1355 16.0827C29.1355 20.3593 29.12 20.8649 29.0424 22.5544C28.9713 24.1157 28.7101 24.9643 28.4917 25.5283C28.2007 26.276 27.8541 26.8094 27.2942 27.369C26.7342 27.9286 26.2001 28.2758 25.4527 28.5669C24.8892 28.7867 24.0405 29.0468 22.4796 29.1178C20.7921 29.1954 20.2852 29.2109 16.0098 29.2109C11.7345 29.2109 11.229 29.1954 9.54197 29.1178ZM9.40941 0.165342C7.70509 0.242978 6.54049 0.513299 5.52343 0.90917C4.47012 1.31798 3.57845 1.86644 2.68742 2.75631C1.79639 3.64619 1.24951 4.53953 0.840812 5.59314C0.445055 6.61113 0.174813 7.77543 0.0971983 9.48024C0.018303 11.1877 0.000244141 11.7336 0.000244141 16.0826C0.000244141 20.4315 0.018303 20.9774 0.0971983 22.6849C0.174813 24.3899 0.445055 25.554 0.840812 26.572C1.24951 27.625 1.79652 28.5194 2.68742 29.4088C3.57833 30.2983 4.47012 30.846 5.52343 31.256C6.54241 31.6519 7.70509 31.9222 9.40941 31.9998C11.1173 32.0775 11.6621 32.0968 16.0098 32.0968C20.3575 32.0968 20.9033 32.0787 22.6103 31.9998C24.3147 31.9222 25.4786 31.6519 26.4963 31.256C27.5489 30.846 28.4412 30.2987 29.3323 29.4088C30.2233 28.519 30.769 27.625 31.1789 26.572C31.5746 25.554 31.8462 24.3897 31.9225 22.6849C32.0001 20.9761 32.0182 20.4315 32.0182 16.0826C32.0182 11.7336 32.0001 11.1877 31.9225 9.48024C31.8449 7.7753 31.5746 6.61049 31.1789 5.59314C30.769 4.54017 30.2219 3.6476 29.3323 2.75631C28.4426 1.86503 27.5489 1.31798 26.4975 0.90917C25.4786 0.513299 24.3146 0.241697 22.6116 0.165342C20.9046 0.0877046 20.3588 0.0683594 16.0111 0.0683594C11.6634 0.0683594 11.1173 0.0864234 9.40941 0.165342Z" fill="#FDFDFD"/>
<path d="M10.6742 16.0826C10.6742 13.1346 13.0627 10.7441 16.0098 10.7441C18.957 10.7441 21.3468 13.1346 21.3468 16.0826C21.3468 19.0306 18.957 21.4211 16.0098 21.4211C13.0627 21.4211 10.6742 19.0306 10.6742 16.0826ZM7.78911 16.0826C7.78911 20.6242 11.4695 24.3057 16.0098 24.3057C20.5502 24.3057 24.2306 20.6242 24.2306 16.0826C24.2306 11.5409 20.5502 7.85947 16.0098 7.85947C11.4695 7.85947 7.78911 11.5409 7.78911 16.0826ZM22.6349 7.53342C22.6347 7.9135 22.7472 8.28509 22.9582 8.60119C23.1692 8.9173 23.4691 9.16373 23.8201 9.30932C24.1711 9.45491 24.5574 9.49312 24.9301 9.41912C25.3028 9.34512 25.6452 9.16223 25.9139 8.89359C26.1827 8.62494 26.3658 8.2826 26.4401 7.90985C26.5144 7.53711 26.4765 7.1507 26.3312 6.79949C26.186 6.44829 25.9398 6.14806 25.624 5.93678C25.3082 5.72549 24.9368 5.61264 24.5568 5.61248H24.556C24.0467 5.61272 23.5583 5.81516 23.1981 6.17533C22.8379 6.5355 22.6353 7.02396 22.6349 7.53342ZM9.54197 29.1178C7.98109 29.0467 7.13271 28.7866 6.56892 28.5669C5.82146 28.2758 5.28815 27.9291 4.72743 27.369C4.16671 26.8089 3.81962 26.276 3.52991 25.5283C3.31013 24.9646 3.05014 24.1157 2.97918 22.5544C2.90157 20.8664 2.88607 20.3593 2.88607 16.0827C2.88607 11.8061 2.90285 11.3005 2.97918 9.61104C3.05027 8.04972 3.31218 7.2025 3.52991 6.63714C3.8209 5.88947 4.16748 5.356 4.72743 4.79512C5.28738 4.23424 5.82018 3.88705 6.56892 3.59725C7.13246 3.37741 7.98109 3.11734 9.54197 3.04636C11.2295 2.96873 11.7364 2.95323 16.0098 2.95323C20.2833 2.95323 20.7907 2.97001 22.4796 3.04636C24.0405 3.11747 24.8875 3.37946 25.4527 3.59725C26.2001 3.88705 26.7335 4.235 27.2942 4.79512C27.8549 5.35523 28.2007 5.88947 28.4917 6.63714C28.7115 7.20084 28.9715 8.04972 29.0424 9.61104C29.12 11.3005 29.1355 11.8061 29.1355 16.0827C29.1355 20.3593 29.12 20.8649 29.0424 22.5544C28.9713 24.1157 28.7101 24.9643 28.4917 25.5283C28.2007 26.276 27.8541 26.8094 27.2942 27.369C26.7342 27.9286 26.2001 28.2758 25.4527 28.5669C24.8892 28.7867 24.0405 29.0468 22.4796 29.1178C20.7921 29.1954 20.2852 29.2109 16.0098 29.2109C11.7345 29.2109 11.229 29.1954 9.54197 29.1178ZM9.40941 0.165342C7.70509 0.242978 6.54049 0.513299 5.52343 0.90917C4.47012 1.31798 3.57845 1.86644 2.68742 2.75631C1.79639 3.64619 1.24951 4.53953 0.840812 5.59314C0.445055 6.61113 0.174813 7.77543 0.0971983 9.48024C0.018303 11.1877 0.000244141 11.7336 0.000244141 16.0826C0.000244141 20.4315 0.018303 20.9774 0.0971983 22.6849C0.174813 24.3899 0.445055 25.554 0.840812 26.572C1.24951 27.625 1.79652 28.5194 2.68742 29.4088C3.57833 30.2983 4.47012 30.846 5.52343 31.256C6.54241 31.6519 7.70509 31.9222 9.40941 31.9998C11.1173 32.0775 11.6621 32.0968 16.0098 32.0968C20.3575 32.0968 20.9033 32.0787 22.6103 31.9998C24.3147 31.9222 25.4786 31.6519 26.4963 31.256C27.5489 30.846 28.4412 30.2987 29.3323 29.4088C30.2233 28.519 30.769 27.625 31.1789 26.572C31.5746 25.554 31.8462 24.3897 31.9225 22.6849C32.0001 20.9761 32.0182 20.4315 32.0182 16.0826C32.0182 11.7336 32.0001 11.1877 31.9225 9.48024C31.8449 7.7753 31.5746 6.61049 31.1789 5.59314C30.769 4.54017 30.2219 3.6476 29.3323 2.75631C28.4426 1.86503 27.5489 1.31798 26.4975 0.90917C25.4786 0.513299 24.3146 0.241697 22.6116 0.165342C20.9046 0.0877046 20.3588 0.0683594 16.0111 0.0683594C11.6634 0.0683594 11.1173 0.0864234 9.40941 0.165342Z" fill="#FDFDFD"/>
</svg>
