<svg width="40" height="40" viewBox="0 0 40 40" fill="none" xmlns="http://www.w3.org/2000/svg">
<path d="M19.8043 39.0787C9.20737 39.0787 0.582275 30.4536 0.582275 19.8568C0.582275 9.25986 9.20737 0.634766 19.8043 0.634766C30.4012 0.634766 39.0263 9.25986 39.0263 19.8568C39.0263 30.4536 30.4012 39.0787 19.8043 39.0787ZM19.8043 3.73509C10.9125 3.73509 3.6826 10.965 3.6826 19.8568C3.6826 28.7485 10.9125 35.9784 19.8043 35.9784C28.696 35.9784 35.9259 28.7485 35.9259 19.8568C35.9259 10.965 28.696 3.73509 19.8043 3.73509Z" fill="#FDFDFD"/>
<path d="M14.2247 17.965C10.5911 17.965 6.65988 17.4255 2.46825 16.3342C1.63736 16.1172 1.14131 15.2739 1.35833 14.443C1.57535 13.6121 2.41864 13.1161 3.24953 13.3331C15.9484 16.6319 25.8881 14.5422 31.9895 7.29989C32.5414 6.64883 33.5211 6.56202 34.1721 7.11387C34.8294 7.66573 34.91 8.64543 34.3582 9.2965C29.5154 15.0445 22.6699 17.965 14.2247 17.965Z" fill="#FDFDFD"/>
<path d="M6.47396 33.0078C6.11432 33.0078 5.76088 32.8838 5.46945 32.6357C4.81838 32.0777 4.74398 31.098 5.29583 30.4469C14.3612 19.85 26.0928 17.3326 37.4834 23.5518C38.2336 23.961 38.5127 24.9035 38.1034 25.6538C37.6942 26.4041 36.7517 26.6831 36.0014 26.2739C22.3228 18.8145 12.3708 26.9498 7.65208 32.4683C7.34825 32.8218 6.9142 33.0078 6.47396 33.0078Z" fill="#FDFDFD"/>
<path d="M24.8823 38.3344C24.8265 38.3344 24.7707 38.3344 24.7149 38.3282C23.8654 38.2352 23.2515 37.4725 23.3446 36.6168C24.5537 25.5301 21.7014 14.3503 14.8745 3.37517C14.4218 2.6497 14.6451 1.6948 15.3705 1.24215C16.096 0.789507 17.0509 1.01273 17.5036 1.73821C24.7087 13.3148 27.7098 25.1642 26.4263 36.9579C26.3333 37.7515 25.6636 38.3344 24.8823 38.3344Z" fill="#FDFDFD"/>
</svg>
